# xmcd CD database file
#
# Track frame offsets:
#	150
#	19929
#	38304
#	58712
#	82623
#	103882
#	122672
#	142218
#	162148
#	185199
#	200649
#	223028
#
# Disc length: 3233 seconds
#
# Revision: 0
# Processed by: cddbd v1.5.1PL2 Copyright (c) Steve Scherf et al.
# Submitted via: CDex 1.50
#
DISCID=a90c9f0c
DTITLE=レミオロメン - ether
DYEAR=1900
DGENRE=J-Pop
TTITLE0=春夏秋冬
TTITLE1=モラトリアム
TTITLE2=春景色
TTITLE3=アカシア
TTITLE4=永遠と一瞬
TTITLE5=深呼吸
TTITLE6=ドッグイヤー
TTITLE7=五月雨
TTITLE8=コスモス
TTITLE9=3月9日
TTITLE10=南風
TTITLE11=海のバラッド
EXTD=
EXTT0=
EXTT1=
EXTT2=
EXTT3=
EXTT4=
EXTT5=
EXTT6=
EXTT7=
EXTT8=
EXTT9=
EXTT10=
EXTT11=
PLAYORDER=
